PathFileType	4	(X/Y/Z)	c:/Users/goper/Files/vsCode/490R/osim_files/C08/C08_SSWS_05.trc
DataRate	CameraRate	NumFrames	NumMarkers	Units                	OrigDataRate	OrigDataStartFrame	OrigNumFrames
250.00	250.00	5	36	mm	250.0	1333	3554
                Frame#	Time	LPSIS			LASIS			LTH1			LTH2			LTH3			LTH4			LLFE			LMFE			LSH1			LSH2			LSH3			LSH4			LLMAL			LMMAL			LCAL			LMTP5			LTOE			LMTP1			RPSIS			RASIS			RTH1			RTH2			RTH3			RTH4			RLFE			RMFE			RSH1			RSH2			RSH3			RSH4			RLMAL			RMMAL			RCAL			RMTP1			RTOE			RMTP5		
		X1	Y1	Z1	X2	Y2	Z2	X3	Y3	Z3	X4	Y4	Z4	X5	Y5	Z5	X6	Y6	Z6	X7	Y7	Z7	X8	Y8	Z8	X9	Y9	Z9	X10	Y10	Z10	X11	Y11	Z11	X12	Y12	Z12	X13	Y13	Z13	X14	Y14	Z14	X15	Y15	Z15	X16	Y16	Z16	X17	Y17	Z17	X18	Y18	Z18	X19	Y19	Z19	X20	Y20	Z20	X21	Y21	Z21	X22	Y22	Z22	X23	Y23	Z23	X24	Y24	Z24	X25	Y25	Z25	X26	Y26	Z26	X27	Y27	Z27	X28	Y28	Z28	X29	Y29	Z29	X30	Y30	Z30	X31	Y31	Z31	X32	Y32	Z32	X33	Y33	Z33	X34	Y34	Z34	X35	Y35	Z35	X36	Y36	Z36

1333	5.32800	-28.51851	1052.49121	223.88249	-230.00896	1004.85132	315.57541	-98.95226	734.84052	373.20444	-85.86633	659.72491	350.28003	-74.01855	588.94458	341.32434	-163.87254	656.66577	334.35046	-64.20258	539.50964	331.04947	-72.68397	531.45764	201.17163	12.73429	421.90985	332.54935	15.09826	374.58508	331.48209	-48.14765	415.17267	335.87653	-38.22772	369.62363	333.96527	45.35741	103.34082	266.31485	19.42554	114.38072	178.99167	109.37875	84.47589	207.28174	-65.53285	42.08044	296.62390	-130.55650	58.10935	239.73448	-95.66306	43.43534	185.72420	-30.50235	1047.65369	164.03075	-227.72797	1012.55701	79.36991	-247.31769	755.71075	14.48744	-280.25128	684.46918	29.68381	-310.83231	610.78845	40.69075	-344.87039	716.73669	59.08610	-336.08200	551.80377	55.26283	-345.19229	545.92920	183.20998	-291.13986	466.56281	36.51691	-300.88434	421.40091	30.55563	-351.48843	470.77319	45.55171	-352.53845	426.46259	37.53236	-317.22668	119.23015	75.89312	-346.79761	124.42137	162.95514	-261.83679	87.65491	145.75313	-476.46533	75.55693	146.40237	-488.32352	99.10325	92.18948	-440.67776	69.04683	35.26781
1334	5.33200	-33.13864	1051.91626	223.69408	-234.50174	1003.90967	315.85660	-102.30180	734.51233	373.31271	-88.31326	659.92609	350.91125	-76.60474	588.76001	341.35645	-166.95406	656.19281	334.57617	-66.47765	539.37469	331.03638	-74.93275	531.34143	201.18758	11.10457	422.11569	332.51053	13.64529	374.83627	331.40485	-49.79752	415.08911	335.78009	-38.59901	370.57016	332.08902	45.04246	103.64027	266.15436	19.08920	114.56518	178.84338	109.15652	84.86437	207.13278	-65.59071	42.08570	296.59845	-130.68344	57.98880	239.73172	-95.86401	43.54597	185.64418	-35.25847	1047.09985	163.86554	-232.72507	1011.65533	79.45147	-250.70876	754.29913	14.78001	-283.47626	683.11438	29.93728	-313.97739	609.22955	40.60875	-348.43491	715.24060	58.71794	-340.03647	550.53131	55.36411	-350.28204	545.50037	183.59387	-296.57324	464.56113	36.58014	-307.30295	419.61981	30.61898	-357.59763	470.05154	45.42309	-360.11636	425.81073	36.63762	-330.99625	117.74429	76.56296	-360.59531	123.82648	163.41833	-276.55286	84.80566	146.41171	-491.39777	78.05360	146.92006	-502.59244	101.82732	92.55785	-456.03842	70.29507	35.68963
1335	5.33600	-37.77848	1051.30298	223.53613	-239.00494	1002.93225	316.17004	-105.76199	734.14557	373.42413	-91.84927	659.23846	350.35626	-79.27481	588.60120	341.33081	-169.92484	655.64728	334.59448	-68.79098	539.28259	331.03998	-77.16206	531.25629	201.19119	9.39236	422.35355	332.39957	12.15435	375.06354	331.29251	-51.45418	415.07883	335.74332	-40.64250	370.35257	331.72791	44.71041	104.00266	265.98322	18.74290	114.80635	178.69099	108.91549	85.26836	206.99658	-65.61598	42.08339	296.60132	-130.82953	57.86082	239.70166	-96.07530	43.64862	185.54422	-40.05243	1046.46826	163.70863	-237.72429	1010.71191	79.58833	-254.04129	752.90814	15.04267	-286.67633	681.64685	30.12150	-316.65219	607.52905	39.09076	-351.98761	713.65991	58.26881	-343.96478	549.14868	55.47748	-355.32074	545.02594	183.96814	-302.27316	462.29471	36.52818	-313.75522	417.82132	30.69700	-363.02130	469.29218	45.41829	-366.08279	424.90289	37.24239	-345.14508	116.28473	76.58363	-374.15829	123.40793	163.94154	-290.89093	82.50033	146.82265	-506.05362	80.73349	147.49435	-516.60626	104.59484	93.03709	-470.89996	71.87294	36.27037
1336	5.34000	-42.40229	1050.65503	223.42596	-243.49052	1001.98560	316.50839	-109.12557	733.79083	373.54495	-94.38231	659.41882	350.98462	-81.91755	588.42896	341.35492	-172.38974	655.09088	334.70337	-70.65243	539.35992	331.19025	-79.51900	531.18176	201.18402	7.71389	422.61902	332.31055	10.72428	375.38333	331.19955	-53.00703	415.14236	335.65952	-42.15184	370.34100	331.63208	44.42329	104.36466	265.86472	18.37790	115.06127	178.56831	108.78374	85.20911	207.25125	-65.62054	42.06268	296.57166	-130.93832	57.69298	239.68521	-96.20814	43.59618	185.53424	-44.84762	1045.81335	163.57817	-242.74959	1009.77539	79.75208	-257.37122	751.41693	15.23177	-289.77368	680.12726	30.19481	-319.65955	605.97595	39.01666	-355.34042	711.91351	57.86659	-347.84055	547.78912	55.58960	-360.30960	544.50812	184.33255	-307.80780	460.17126	36.57275	-320.07544	416.06158	30.82886	-368.36401	468.49170	45.44142	-372.07468	423.93436	37.68625	-358.64243	115.21265	77.18630	-387.51382	123.14676	164.40895	-305.23846	80.41779	147.43408	-520.33740	83.57175	148.04271	-530.33679	107.51576	93.51227	-485.43042	73.61906	36.80572
1337	5.34400	-47.05787	1049.98083	223.23003	-247.78879	1000.96509	316.82831	-112.55336	733.44965	373.69275	-97.88882	658.68121	350.45563	-84.64851	588.23004	341.33490	-175.91998	654.36884	334.26166	-73.52635	538.99756	331.01944	-81.95158	531.08673	201.20784	5.91544	422.87140	332.19873	9.13201	375.64389	331.08765	-54.76600	415.00327	335.59827	-43.63017	370.33218	331.55951	44.09654	104.72252	265.68402	18.02260	115.33607	178.41574	108.41238	86.20403	206.70012	-65.61528	42.02710	296.58331	-130.98508	57.46965	239.69582	-96.47773	43.74667	185.39949	-49.62408	1045.12659	163.41956	-247.83768	1008.89502	79.96636	-260.69974	749.97888	15.35380	-292.81992	678.59985	30.25990	-322.54642	604.34552	38.82903	-358.83054	710.19391	57.39469	-351.74316	546.32709	55.72280	-365.24982	543.94958	184.68677	-313.29077	458.09567	36.65098	-326.35275	414.38528	30.91784	-373.66876	467.72357	45.51686	-377.74811	422.79718	38.24437	-371.91211	114.31035	77.75579	-400.57739	123.10303	164.94827	-319.27249	78.22014	148.14755	-534.31055	86.54143	148.58142	-543.70038	110.52172	94.00571	-499.63934	75.52168	37.33913
